<svg width="132" height="32" viewBox="0 0 132 32" fill="none" xmlns="http://www.w3.org/2000/svg">
<path d="M52.832 11.536C52.32 11.12 51.808 10.816 51.296 10.624C50.784 10.416 50.288 10.312 49.808 10.312C49.2 10.312 48.704 10.456 48.32 10.744C47.936 11.032 47.744 11.408 47.744 11.872C47.744 12.192 47.84 12.456 48.032 12.664C48.224 12.872 48.472 13.056 48.776 13.216C49.096 13.36 49.448 13.488 49.832 13.6C50.232 13.712 50.624 13.832 51.008 13.96C52.544 14.472 53.664 15.16 54.368 16.024C55.088 16.872 55.448 17.984 55.448 19.36C55.448 20.288 55.288 21.128 54.968 21.88C54.664 22.632 54.208 23.28 53.6 23.824C53.008 24.352 52.272 24.76 51.392 25.048C50.528 25.352 49.544 25.504 48.44 25.504C46.152 25.504 44.032 24.824 42.08 23.464L44.096 19.672C44.8 20.296 45.496 20.76 46.184 21.064C46.872 21.368 47.552 21.52 48.224 21.52C48.992 21.52 49.56 21.344 49.928 20.992C50.312 20.64 50.504 20.24 50.504 19.792C50.504 19.52 50.456 19.288 50.36 19.096C50.264 18.888 50.104 18.704 49.88 18.544C49.656 18.368 49.36 18.208 48.992 18.064C48.64 17.92 48.208 17.76 47.696 17.584C47.088 17.392 46.488 17.184 45.896 16.96C45.32 16.72 44.8 16.408 44.336 16.024C43.888 15.64 43.52 15.16 43.232 14.584C42.96 13.992 42.824 13.248 42.824 12.352C42.824 11.456 42.968 10.648 43.256 9.928C43.56 9.192 43.976 8.568 44.504 8.056C45.048 7.528 45.704 7.12 46.472 6.832C47.256 6.544 48.128 6.4 49.088 6.4C49.984 6.4 50.92 6.528 51.896 6.784C52.872 7.024 53.808 7.384 54.704 7.864L52.832 11.536ZM63.086 16.312V25H58.742V16.312H57.302V12.688H58.742V8.992H63.086V12.688H65.558V16.312H63.086ZM71.4575 18.808C71.4575 19.208 71.5295 19.584 71.6735 19.936C71.8175 20.272 72.0095 20.568 72.2495 20.824C72.5055 21.08 72.8015 21.28 73.1375 21.424C73.4895 21.568 73.8655 21.64 74.2655 21.64C74.6495 21.64 75.0095 21.568 75.3455 21.424C75.6975 21.28 75.9935 21.08 76.2335 20.824C76.4895 20.568 76.6895 20.272 76.8335 19.936C76.9935 19.6 77.0735 19.24 77.0735 18.856C77.0735 18.472 76.9935 18.112 76.8335 17.776C76.6895 17.424 76.4895 17.12 76.2335 16.864C75.9935 16.608 75.6975 16.408 75.3455 16.264C75.0095 16.12 74.6495 16.048 74.2655 16.048C73.8655 16.048 73.4895 16.12 73.1375 16.264C72.8015 16.408 72.5055 16.608 72.2495 16.864C72.0095 17.12 71.8175 17.416 71.6735 17.752C71.5295 18.072 71.4575 18.424 71.4575 18.808ZM76.9295 12.688H81.2975V25H76.9295V23.632C76.0015 24.8 74.7455 25.384 73.1615 25.384C72.2655 25.384 71.4415 25.224 70.6895 24.904C69.9375 24.568 69.2815 24.104 68.7215 23.512C68.1615 22.92 67.7215 22.224 67.4015 21.424C67.0975 20.624 66.9455 19.752 66.9455 18.808C66.9455 17.928 67.0975 17.096 67.4015 16.312C67.7055 15.512 68.1295 14.816 68.6735 14.224C69.2175 13.632 69.8655 13.168 70.6175 12.832C71.3695 12.48 72.2015 12.304 73.1135 12.304C74.6495 12.304 75.9215 12.84 76.9295 13.912V12.688ZM88.2856 18.808C88.2856 19.208 88.3576 19.584 88.5016 19.936C88.6456 20.272 88.8376 20.568 89.0776 20.824C89.3336 21.08 89.6296 21.28 89.9656 21.424C90.3176 21.568 90.6936 21.64 91.0936 21.64C91.4776 21.64 91.8376 21.568 92.1736 21.424C92.5256 21.28 92.8216 21.08 93.0616 20.824C93.3176 20.568 93.5176 20.272 93.6616 19.936C93.8216 19.6 93.9016 19.24 93.9016 18.856C93.9016 18.472 93.8216 18.112 93.6616 17.776C93.5176 17.424 93.3176 17.12 93.0616 16.864C92.8216 16.608 92.5256 16.408 92.1736 16.264C91.8376 16.12 91.4776 16.048 91.0936 16.048C90.6936 16.048 90.3176 16.12 89.9656 16.264C89.6296 16.408 89.3336 16.608 89.0776 16.864C88.8376 17.12 88.6456 17.416 88.5016 17.752C88.3576 18.072 88.2856 18.424 88.2856 18.808ZM93.7576 12.688H98.1256V25H93.7576V23.632C92.8296 24.8 91.5736 25.384 89.9896 25.384C89.0936 25.384 88.2696 25.224 87.5176 24.904C86.7656 24.568 86.1096 24.104 85.5496 23.512C84.9896 22.92 84.5496 22.224 84.2296 21.424C83.9256 20.624 83.7736 19.752 83.7736 18.808C83.7736 17.928 83.9256 17.096 84.2296 16.312C84.5336 15.512 84.9576 14.816 85.5016 14.224C86.0456 13.632 86.6936 13.168 87.4456 12.832C88.1976 12.48 89.0296 12.304 89.9416 12.304C91.4776 12.304 92.7496 12.84 93.7576 13.912V12.688ZM110.37 16.672C109.618 16.16 108.858 15.904 108.09 15.904C107.674 15.904 107.282 15.976 106.914 16.12C106.562 16.264 106.25 16.472 105.978 16.744C105.706 17 105.49 17.312 105.33 17.68C105.186 18.032 105.114 18.432 105.114 18.88C105.114 19.312 105.186 19.712 105.33 20.08C105.49 20.432 105.698 20.744 105.954 21.016C106.226 21.272 106.546 21.472 106.914 21.616C107.282 21.76 107.674 21.832 108.09 21.832C108.906 21.832 109.666 21.552 110.37 20.992V24.688C109.298 25.152 108.282 25.384 107.322 25.384C106.426 25.384 105.57 25.232 104.754 24.928C103.954 24.624 103.242 24.192 102.618 23.632C102.01 23.056 101.522 22.376 101.154 21.592C100.786 20.792 100.602 19.904 100.602 18.928C100.602 17.952 100.778 17.064 101.13 16.264C101.482 15.448 101.962 14.752 102.57 14.176C103.178 13.584 103.898 13.128 104.73 12.808C105.578 12.472 106.482 12.304 107.442 12.304C108.498 12.304 109.474 12.528 110.37 12.976V16.672ZM117.801 5.08V17.128L122.361 12.688H128.313L122.145 18.376L128.673 25H122.577L117.801 19.984V25H113.457V5.08H117.801Z" fill="white"/>
<path opacity="0.9" fill-rule="evenodd" clip-rule="evenodd" d="M22.3619 8.8261C23.3815 8.16473 24.0559 7.0165 24.0559 5.71075C24.0559 3.66136 22.3945 2 20.3451 2C19.0311 2 17.8766 2.68301 17.2173 3.71338C16.6241 3.49867 15.9672 3.32739 15.239 3.21257C14.2725 3.05749 13.3597 2.99878 12.4986 3.03152C11.6378 2.99887 10.7253 3.0576 9.75929 3.21262C6.67671 3.69865 4.87063 5.19647 3.77963 6.7177C3.55623 6.64547 3.31789 6.60645 3.07043 6.60645C1.7984 6.60645 0.767211 7.63763 0.767211 8.90967C0.767211 9.76561 1.23412 10.5125 1.92714 10.9095C0.748635 14.8787 0.0108768 20.7788 0 23.7339C0.0040986 24.5462 0.0499559 25.1622 0.175864 25.4164C0.889428 26.9687 3.69297 26.6524 3.97892 25.5196C4.94559 29.7696 10.8087 29.9451 12.4992 27.0355C14.1896 29.945 20.0527 29.7695 21.0194 25.5195C21.3053 26.6524 24.1089 26.9687 24.8224 25.4163C24.9483 25.1622 24.9942 24.5461 24.9983 23.7339C24.9867 20.5787 24.1464 14.0663 22.8258 10.1315C22.8065 10.0741 22.7861 10.0122 22.7642 9.94604C22.6653 9.64647 22.538 9.26119 22.3619 8.8261ZM4.34978 3.53567C4.34978 4.24236 3.7769 4.81524 3.07022 4.81524C2.36353 4.81524 1.79065 4.24236 1.79065 3.53567C1.79065 2.82899 2.36353 2.2561 3.07022 2.2561C3.7769 2.2561 4.34978 2.82899 4.34978 3.53567ZM13.6475 14.0687C13.8161 14.1049 13.9198 14.2755 13.81 14.4085C13.7116 14.5276 13.5796 14.6322 13.4563 14.7298C13.4152 14.7624 13.375 14.7942 13.3374 14.8256C13.1081 15.0165 12.8215 15.1251 12.5233 15.1339C12.2252 15.1427 11.9326 15.0513 11.6925 14.8742C11.6573 14.8483 11.6201 14.8219 11.582 14.7949C11.449 14.7006 11.3049 14.5984 11.1961 14.4789C11.0799 14.3515 11.1734 14.1752 11.3396 14.1292C11.5057 14.0831 11.7112 14.1708 11.8617 14.2549C11.8813 14.2658 11.901 14.2765 11.9204 14.2869C11.9733 14.3155 12.024 14.3428 12.0631 14.3717C12.1908 14.4658 12.3463 14.5144 12.5049 14.5097C12.6634 14.505 12.8158 14.4473 12.9377 14.3458C12.9763 14.3137 13.0275 14.2831 13.0807 14.2515L13.0808 14.2514C13.0973 14.2416 13.114 14.2316 13.1306 14.2215C13.2776 14.1315 13.4789 14.0325 13.6475 14.0687ZM11.147 9.88312C11.9491 10.1671 12.2854 11.1414 11.576 11.6113C11.2959 11.7968 10.9993 11.7541 10.6866 11.7091C10.4888 11.6806 10.2845 11.6512 10.0738 11.6781C9.86918 11.7043 9.66065 11.7833 9.45254 11.8622L9.45253 11.8623C9.10789 11.9929 8.76441 12.1231 8.44177 12.0119C7.64328 11.8272 7.72534 10.7124 8.43062 10.2423C8.43062 10.2423 8.85629 9.8833 9.76853 9.73964C10.4527 9.63189 11.147 9.88312 11.147 9.88312ZM16.8689 10.3851C17.5448 10.902 17.5652 11.9325 16.7457 12.1615C16.4221 12.2519 16.153 12.1201 15.8694 11.9811C15.6898 11.8932 15.5045 11.8024 15.2958 11.7632C15.093 11.7252 14.8703 11.7363 14.648 11.7474C14.2798 11.7658 13.913 11.7841 13.6401 11.5791C12.9371 11.1577 13.358 10.1222 14.1736 9.89173C14.1736 9.89173 14.6891 9.68099 15.6013 9.82477C16.2855 9.9326 16.8689 10.3851 16.8689 10.3851Z" fill="url(#paint0_linear_566_1150)"/>
<defs>
<linearGradient id="paint0_linear_566_1150" x1="12.4991" y1="2" x2="12.4991" y2="29" gradientUnits="userSpaceOnUse">
<stop offset="0.640625" stop-color="white"/>
<stop offset="1" stop-color="#B9B9B9"/>
</linearGradient>
</defs>
</svg>
