<svg width="25" height="27" viewBox="0 0 25 27" fill="none" xmlns="http://www.w3.org/2000/svg">
<path opacity="0.9" fill-rule="evenodd" clip-rule="evenodd" d="M22.3619 6.8261C23.3815 6.16473 24.0559 5.0165 24.0559 3.71075C24.0559 1.66136 22.3945 0 20.3451 0C19.0311 0 17.8766 0.683008 17.2173 1.71338C16.6241 1.49867 15.9672 1.32739 15.239 1.21257C14.2725 1.05749 13.3597 0.998779 12.4986 1.03152C11.6378 0.998871 10.7253 1.0576 9.75929 1.21262C6.67671 1.69865 4.87063 3.19647 3.77963 4.7177C3.55623 4.64547 3.31789 4.60645 3.07043 4.60645C1.7984 4.60645 0.767211 5.63763 0.767211 6.90967C0.767211 7.76561 1.23412 8.5125 1.92714 8.90955C0.748635 12.8787 0.0108768 18.7788 0 21.7339C0.00409865 22.5462 0.0499559 23.1622 0.175864 23.4164C0.889428 24.9687 3.69297 24.6524 3.97892 23.5196C4.94559 27.7696 10.8087 27.9451 12.4992 25.0355C14.1896 27.945 20.0527 27.7695 21.0194 23.5195C21.3053 24.6524 24.1089 24.9687 24.8224 23.4163C24.9483 23.1622 24.9942 22.5461 24.9983 21.7339C24.9867 18.5787 24.1464 12.0663 22.8258 8.13146C22.8065 8.07409 22.7861 8.01215 22.7642 7.94604C22.6653 7.64648 22.538 7.26119 22.3619 6.8261ZM4.34978 1.53567C4.34978 2.24236 3.7769 2.81524 3.07022 2.81524C2.36353 2.81524 1.79065 2.24236 1.79065 1.53567C1.79065 0.828986 2.36353 0.256104 3.07022 0.256104C3.7769 0.256104 4.34978 0.828986 4.34978 1.53567ZM13.6475 12.0687C13.8161 12.1049 13.9198 12.2755 13.81 12.4085C13.7116 12.5276 13.5796 12.6322 13.4563 12.7298C13.4152 12.7624 13.375 12.7942 13.3374 12.8256C13.1081 13.0165 12.8215 13.1251 12.5233 13.1339C12.2252 13.1427 11.9326 13.0513 11.6925 12.8742C11.6573 12.8483 11.6201 12.8219 11.582 12.7949L11.582 12.7949C11.449 12.7006 11.3049 12.5984 11.1961 12.4789C11.0799 12.3515 11.1734 12.1752 11.3396 12.1292C11.5057 12.0831 11.7112 12.1708 11.8617 12.2549C11.8812 12.2658 11.9009 12.2764 11.9203 12.2869L11.9204 12.2869C11.9733 12.3155 12.024 12.3428 12.0631 12.3717C12.1908 12.4658 12.3463 12.5144 12.5049 12.5097C12.6634 12.505 12.8158 12.4473 12.9377 12.3458C12.9763 12.3137 13.0275 12.2831 13.0807 12.2515L13.0808 12.2514C13.0973 12.2416 13.114 12.2316 13.1306 12.2215C13.2776 12.1315 13.4789 12.0325 13.6475 12.0687ZM11.147 7.88312C11.9491 8.16711 12.2854 9.14144 11.576 9.6113C11.2959 9.79684 10.9993 9.75413 10.6866 9.70912C10.4888 9.68062 10.2845 9.6512 10.0738 9.67813C9.86918 9.70429 9.66064 9.78335 9.45253 9.86225C9.10789 9.99292 8.76441 10.1231 8.44177 10.0119C7.64328 9.82718 7.72534 8.71236 8.43062 8.24232C8.43062 8.24232 8.85629 7.8833 9.76853 7.73964C10.4527 7.63189 11.147 7.88312 11.147 7.88312ZM16.8689 8.38514C17.5448 8.90199 17.5652 9.93251 16.7457 10.1615C16.4221 10.2519 16.153 10.1201 15.8694 9.98113C15.6898 9.89318 15.5045 9.80237 15.2958 9.76322C15.093 9.7252 14.8703 9.73631 14.648 9.7474C14.2798 9.76577 13.913 9.78407 13.6401 9.57906C12.9371 9.15774 13.358 8.12215 14.1736 7.89173C14.1736 7.89173 14.6891 7.68099 15.6013 7.82477C16.2855 7.9326 16.8689 8.38514 16.8689 8.38514Z" fill="url(#paint0_linear_4223_1826)"/>
<defs>
<linearGradient id="paint0_linear_4223_1826" x1="12.4991" y1="0" x2="12.4991" y2="27" gradientUnits="userSpaceOnUse">
<stop offset="0.640625" stop-color="white"/>
<stop offset="1" stop-color="#B9B9B9"/>
</linearGradient>
</defs>
</svg>
